<?xml version="1.0" standalone="no"?>
<!DOCTYPE svg PUBLIC "-//W3C//DTD SVG 20010904//EN"
 "http://www.w3.org/TR/2001/REC-SVG-20010904/DTD/svg10.dtd">
<svg version="1.0" xmlns="http://www.w3.org/2000/svg"
 width="225.000000pt" height="224.000000pt" viewBox="0 0 225.000000 224.000000"
 preserveAspectRatio="xMidYMid meet">

<g transform="translate(0.000000,224.000000) scale(0.100000,-0.100000)"
fill="#000000" stroke="none">
<path d="M584 2228 c-12 -5 -27 -21 -33 -34 -23 -52 -14 -73 64 -153 l74 -76
76 75 c67 67 75 79 75 112 0 63 -60 103 -118 79 -20 -9 -36 -9 -56 -1 -33 12
-54 12 -82 -2z"/>
<path d="M1279 2047 c-21 -14 -39 -37 -46 -60 -22 -66 -8 -93 103 -207 l103
-105 101 100 c111 111 129 144 111 204 -6 21 -22 48 -35 60 -33 31 -102 39
-144 17 -29 -15 -35 -15 -62 -1 -42 22 -92 19 -131 -8z"/>
<path d="M794 1715 c-22 -33 -13 -51 54 -118 l58 -58 62 65 c34 35 62 70 62
78 0 48 -65 75 -101 42 -17 -15 -20 -15 -43 0 -37 24 -73 20 -92 -9z"/>
<path d="M960 1505 l-54 -55 -51 50 -50 50 -90 -10 c-325 -37 -367 -92 -102
-135 388 -63 1211 -20 1195 63 -9 46 -349 92 -688 92 l-106 0 -54 -55z"/>
<path d="M436 1322 c-20 -222 -26 -384 -16 -451 23 -166 86 -288 209 -412 69
-69 103 -94 171 -127 121 -59 194 -76 325 -76 131 0 204 17 325 75 70 34 101
58 175 133 73 73 99 107 132 176 77 156 86 230 69 571 l-8 175 -53 -18 c-232
-78 -1099 -74 -1291 7 l-32 13 -6 -66z"/>
<path d="M1883 1284 c4 -22 7 -51 7 -65 0 -20 6 -28 24 -33 34 -8 93 -78 106
-126 21 -76 -17 -166 -87 -207 -35 -21 -43 -31 -52 -71 -5 -26 -13 -54 -16
-63 -5 -15 -1 -16 41 -8 89 17 167 79 216 172 32 59 32 191 1 258 -37 83 -126
155 -212 174 l-34 7 6 -38z"/>
<path d="M425 445 c-260 -48 -425 -125 -425 -197 0 -33 60 -83 140 -115 418
-172 1552 -172 1970 0 80 32 140 82 140 115 0 76 -181 155 -462 203 l-68 11
-74 -70 c-90 -83 -220 -152 -346 -183 -70 -18 -105 -21 -210 -17 -106 4 -138
10 -212 35 -111 39 -205 94 -290 172 -36 34 -72 61 -80 60 -7 -1 -44 -7 -83
-14z"/>
</g>
</svg>
